{"title":"Happy Wedding Malayalam 2016 DesiSCR x264-HDF.mp4","uid":15698589,"size":1076577128,"categoryP":"video","categoryS":"movies","magnet":"?xt=urn:btih:df615ba73321d4e2731c71e27893f4ca46ed2249&amp;dn=Happy+Wedding+Malayalam+2016+DesiSCR+x264-HDF.mp4&amp;tr=udp%3A%2F%2Ftracker.leechers-paradise.org%3A6969&amp;tr=udp%3A%2F%2Fzer0day.ch%3A1337&amp;tr=udp%3A%2F%2Fopen.demonii.com%3A1337&amp;tr=udp%3A%2F%2Ftracker.coppersurfer.tk%3A6969&amp;tr=udp%3A%2F%2Fexodus.desync.com%3A6969","seeders":3,"leechers":3,"uploader":null,"files":1,"time":1472459941,"description":"http://www.movierulzfull.in/ presents:\r\n\r\nHappy Wedding Malayalam 2016 DesiSCR x264-HDF.mp4\r\n\r\nScreens:\r\n \nhttp://extraimago.com/images/2016/08/29/wqwq.png \nhttp://extraimago.com/images/2016/08/29/wqwy.png \nhttp://extraimago.com/images/2016/08/29/wqwL.png \nhttp://extraimago.com/images/2016/08/29/wqwQ.png \nhttp://extraimago.com/images/2016/08/29/wqwR.png\r\n\r\nInfo:\r\n\r\nFormat : MPEG-4\r\nFormat profile : Base Media\r\nCodec ID : isom (isom/iso2/avc1/mp41)\r\nFile size : 1.00 GiB\r\nDuration : 2 h 11 min\r\nOverall bit rate mode : Variable\r\nOverall bit rate : 1 092 kb/s\r\nWriting application : Lavf57.41.100\r\n\r\nVideo\r\nID : 1\r\nFormat : AVC\r\nFormat/Info : Advanced Video Codec\r\nFormat profile :   \r\nFormat settings, CABAC : Yes\r\nFormat settings, ReFrames : 5 frames\r\nCodec ID : avc1\r\nCodec ID/Info : Advanced Video Coding\r\nDuration : 2 h 9 min\r\nBit rate mode : Variable\r\nBit rate : 1 002 kb/s\r\nMaximum bit rate : 40.0 Mb/s\r\nWidth : 720 pixels\r\nHeight : 304 pixels\r\nDisplay aspect ratio : 2.35:1\r\nFrame rate mode : Variable\r\nFrame rate : 23.976 (24000/1001) FPS\r\nMinimum frame rate : 23.564 FPS\r\nMaximum frame rate : 24.390 FPS\r\nColor space : YUV\r\nChroma subsampling : 4:2:0\r\nBit depth : 8 bits\r\nScan type : Progressive\r\nBits/(Pixel*Frame) : 0.191\r\nStream size : 930 MiB (91%)\r\nWriting library : x264 core 148 r2638 7599210\r\nEncoding settings : cabac=1 / ref=6 / deblock=1:-1:-1 / analyse=0x3:0x133 / me=umh / subme=10 / psy=1 / psy_rd=1.00:0.15 / mixed_ref=1 / me_range=24 / chroma_me=1 / trellis=2 / 8x8dct=1 / cqm=0 / deadzone=21,11 / fast_pskip=1 / chroma_qp_offset=-3 / threads=6 / lookahead_threads=1 / sliced_threads=0 / slices=4 / nr=0 / decimate=1 / interlaced=0 / bluray_compat=1 / constrained_intra=0 / bframes=3 / b_pyramid=1 / b_adapt=2 / b_bias=0 / direct=3 / weightb=1 / open_gop=1 / weightp=1 / keyint=24 / keyint_min=1 / scenecut=40 / intra_refresh=0 / rc_lookahead=24 / rc=2pass / mbtree=1 / bitrate=1002 / ratetol=1.0 / qcomp=0.60 / qpmin=0 / qpmax=69 / qpstep=4 / cplxblur=20.0 / qblur=0.5 / vbv_maxrate=40000 / vbv_bufsize=30000 / nal_hrd=vbr / filler=0 / ip_ratio=1.40 / aq=1:1.00\r\nMenus : 3\r\n\r\nAudio\r\nID : 2\r\nFormat : AAC\r\nFormat/Info : Advanced Audio Codec\r\nFormat profile : LC\r\nCodec ID : 40\r\nDuration : 2 h 9 min\r\nBit rate mode : Constant\r\nBit rate : 96.0 kb/s\r\nChannel(s) : 2 channels\r\nChannel positions : Front: L R\r\nSampling rate : 48.0 kHz\r\nFrame rate : 46.875 FPS (1024 spf)\r\nCompression mode : Lossy\r\nStream size : 89.2 MiB (9%)\r\nLanguage : new\r\nDefault : Yes\r\nAlternate group : 1\r\nMenus : 3\r\n\r\nMenu #1\r\nID : 3\r\nCodec ID : text\r\nDuration : 2 h 11 min\r\nLanguage : English\r\nBit rate mode : CBR\r\nMenu For : 1,2\r\n00:00:00.000 : Chapter 01\r\n00:04:12.734 : Chapter 02\r\n00:07:26.036 : Chapter 03\r\n00:08:36.237 : Chapter 04\r\n00:15:45.305 : Chapter 05\r\n00:21:18.175 : Chapter 06\r\n00:28:55.776 : Chapter 07\r\n00:37:05.346 : Chapter 08\r\n00:38:06.814 : Chapter 09\r\n00:46:29.583 : Chapter 10\r\n00:54:18.818 : Chapter 11\r\n00:57:56.352 : Chapter 12\r\n01:03:07.321 : Chapter 13\r\n01:12:04.191 : Chapter 14\r\n01:14:19.226 : Chapter 15\r\n01:19:28.562 : Chapter 16\r\n01:27:30.663 : Chapter 17\r\n01:33:27.633 : Chapter 18\r\n01:39:55.368 : Chapter 19\r\n01:43:13.270 : Chapter 20\r\n01:52:37.371 : Chapter 21\r\n01:56:45.939 : Chapter 22\r\n02:03:51.242 : Chapter 23\r\n02:06:46.111 : Chapter 24\r\n\r\nMenu #2\r\n00:00:00.000 : Chapter 01\r\n00:04:12.734 : Chapter 02\r\n00:07:26.036 : Chapter 03\r\n00:08:36.237 : Chapter 04\r\n00:15:45.305 : Chapter 05\r\n00:21:18.175 : Chapter 06\r\n00:28:55.776 : Chapter 07\r\n00:37:05.346 : Chapter 08\r\n00:38:06.814 : Chapter 09\r\n00:46:29.583 : Chapter 10\r\n00:54:18.818 : Chapter 11\r\n00:57:56.352 : Chapter 12\r\n01:03:07.321 : Chapter 13\r\n01:12:04.191 : Chapter 14\r\n01:14:19.226 : Chapter 15\r\n01:19:28.562 : Chapter 16\r\n01:27:30.663 : Chapter 17\r\n01:33:27.633 : Chapter 18\r\n01:39:55.368 : Chapter 19\r\n01:43:13.270 : Chapter 20\r\n01:52:37.371 : Chapter 21\r\n01:56:45.939 : Chapter 22\r\n02:03:51.242 : Chapter 23\r\n02:06:46.111 : Chapter 24 \r\n \nhttp://www.movierulzfull.in/happy-wedding-full-movie-watch/\r\n \nhttp://tvmoviereviews.drupalgardens.com/content/happy-wedding-review","torrent":{"xt":"urn:btih:df615ba73321d4e2731c71e27893f4ca46ed2249","amp;dn":"Happy+Wedding+Malayalam+2016+DesiSCR+x264-HDF.mp4","amp;tr":["udp%3A%2F%2Ftracker.leechers-paradise.org%3A6969","udp%3A%2F%2Fzer0day.ch%3A1337","udp%3A%2F%2Fopen.demonii.com%3A1337","udp%3A%2F%2Ftracker.coppersurfer.tk%3A6969","udp%3A%2F%2Fexodus.desync.com%3A6969"],"infoHash":"df615ba73321d4e2731c71e27893f4ca46ed2249","infoHashBuffer":{"type":"Buffer","data":[223,97,91,167,51,33,212,226,115,28,113,226,120,147,244,202,70,237,34,73]},"announce":[],"urlList":[]}}